<svg width="67" height="189" viewBox="0 0 67 189" fill="none" xmlns="http://www.w3.org/2000/svg">
<path d="M66.6369 161.735C66.6369 169.846 63.1797 176.295 56.2652 181.082C49.4836 186.002 41.9043 188.462 33.5271 188.462C25.0169 188.462 17.3711 186.002 10.5895 181.082C3.80801 176.295 0.417236 169.846 0.417236 161.735V27.6996C0.417236 19.5884 3.80801 13.1393 10.5895 8.35232C17.3711 3.43238 25.0169 0.972412 33.5271 0.972412C41.9043 0.972412 49.4836 3.43238 56.2652 8.35232C63.1797 13.1393 66.6369 19.5884 66.6369 27.6996V161.735ZM41.7048 164.128V25.3062C41.7048 23.4446 40.907 21.9154 39.3113 20.7186C37.8486 19.3889 35.9206 18.7241 33.5271 18.7241C31.1336 18.7241 29.2055 19.3889 27.7428 20.7186C26.1472 21.9154 25.3493 23.4446 25.3493 25.3062V164.128C25.3493 166.123 26.2137 167.718 27.9423 168.915C29.6709 170.112 31.5325 170.71 33.5271 170.71C35.5216 170.71 37.3832 170.112 39.1119 168.915C40.8405 167.718 41.7048 166.123 41.7048 164.128Z" fill="#00A8FF"/>
</svg>
