<svg width="68" height="183" viewBox="0 0 68 183" fill="none" xmlns="http://www.w3.org/2000/svg">
<path d="M67.1245 182.67H42.1923V116.45C42.1923 112.993 40.9956 110.599 38.6021 109.269C36.2086 107.807 31.9536 107.142 25.8369 107.275V182.67H0.904785V0.365967H34.0146C43.1896 0.365967 50.9685 2.49351 57.3511 6.74859C63.8667 11.0037 67.1245 17.5193 67.1245 26.2954V82.9411C67.1245 86.6643 66.3931 89.7226 64.9304 92.1161C63.4677 94.5096 62.0715 95.9723 60.7418 96.5042L58.5478 97.5014C59.2126 97.7674 60.0105 98.2328 60.9413 98.8976C61.8721 99.5625 63.1353 101.225 64.731 103.884C66.3266 106.543 67.1245 109.602 67.1245 113.059V182.67ZM42.1923 79.5503V24.1013C42.1923 22.1068 41.328 20.5776 39.5994 19.5138C38.0037 18.3171 36.1422 17.7187 34.0146 17.7187H25.8369V88.127C29.1612 88.127 31.6211 88.0605 33.2168 87.9275C34.8124 87.7945 36.4081 87.4621 38.0038 86.9302C39.7324 86.3983 40.8626 85.534 41.3945 84.3373C41.9264 83.1405 42.1923 81.5449 42.1923 79.5503Z" fill="#00A8FF"/>
</svg>
