<svg width="67" height="189" viewBox="0 0 67 189" fill="none" xmlns="http://www.w3.org/2000/svg">
<path d="M66.2518 164.128C65.4539 171.574 61.6643 177.425 54.8827 181.68C48.2342 186.068 40.9872 188.262 33.1419 188.262C25.1637 188.262 17.8502 186.068 11.2017 181.68C4.55313 177.425 0.829932 171.574 0.0321045 164.128V117.854L24.9642 117.655V163.929C24.9642 165.923 25.762 167.519 27.3577 168.716C29.0863 169.912 31.0144 170.511 33.1419 170.511C35.0035 170.511 36.9316 169.846 38.9262 168.516C40.5218 167.319 41.3197 165.79 41.3197 163.929V111.671C41.3197 107.283 38.8597 105.089 33.9398 105.089H32.3441C24.0999 105.089 16.6535 102.629 10.0049 97.709C3.35639 92.789 0.0321045 86.3399 0.0321045 78.3617V27.6996C0.0321045 19.5884 3.42287 13.1393 10.2044 8.35231C17.1189 3.43238 24.7647 0.972412 33.1419 0.972412C41.3862 0.972412 48.9655 3.43238 55.88 8.35231C62.7945 13.2722 66.2518 19.7214 66.2518 27.6996V64.0008H41.3197V25.5056C41.3197 23.511 40.5218 21.9154 38.9262 20.7186C36.9316 19.3889 35.0035 18.7241 33.1419 18.7241C31.1474 18.7241 29.2858 19.3889 27.5571 20.7186C25.8285 21.9154 24.9642 23.511 24.9642 25.5056V76.3671C24.9642 78.2287 25.6291 79.7579 26.9588 80.9546C28.2885 82.2843 30.0836 82.9492 32.3441 82.9492H36.9316C49.2979 82.9492 58.0076 87.7361 63.0605 97.31C65.321 102.363 66.3847 107.15 66.2518 111.671V164.128Z" fill="#00A8FF"/>
</svg>
