<svg width="1146" height="609" viewBox="0 0 1146 609" fill="none" xmlns="http://www.w3.org/2000/svg">
<path d="M995.94 332.057V599.385H916.324V7.76758H995.94V274.448L1066.49 7.76758H1145.46L1066.49 303.576L1145.46 599.385H1066.49L995.94 332.057Z" fill="#00A8FF"/>
<path d="M902.474 599.385H821.563V384.486C821.563 373.267 817.679 365.499 809.912 361.184C802.145 356.438 788.336 354.28 768.486 354.711V599.385H687.575V7.76758H795.024C824.799 7.76758 850.044 14.6719 870.757 28.4806C891.901 42.2894 902.474 63.4339 902.474 91.9144V275.743C902.474 287.826 900.1 297.751 895.353 305.518C890.607 313.285 886.076 318.032 881.76 319.758L874.64 322.995C876.798 323.858 879.387 325.368 882.408 327.526C885.428 329.683 889.528 335.077 894.706 343.708C899.884 352.338 902.474 362.263 902.474 373.483V599.385ZM821.563 264.739V84.7943C821.563 78.3214 818.758 73.3589 813.148 69.9068C807.97 66.0231 801.929 64.0812 795.024 64.0812H768.486V292.572C779.274 292.572 787.257 292.356 792.435 291.925C797.614 291.493 802.792 290.415 807.97 288.689C813.58 286.962 817.248 284.158 818.974 280.274C820.7 276.39 821.563 271.212 821.563 264.739Z" fill="#00A8FF"/>
<path d="M673.725 521.71C673.725 548.033 662.506 568.962 640.066 584.497C618.059 600.463 593.462 608.446 566.276 608.446C538.659 608.446 513.846 600.463 491.839 584.497C469.831 568.962 458.827 548.033 458.827 521.71V86.736C458.827 60.4131 469.831 39.4843 491.839 23.9495C513.846 7.98317 538.659 0 566.276 0C593.462 0 618.059 7.98317 640.066 23.9495C662.506 39.4843 673.725 60.4131 673.725 86.736V521.71ZM592.815 529.478V78.9686C592.815 72.9273 590.226 67.9648 585.047 64.0811C580.301 59.7658 574.044 57.6082 566.276 57.6082C558.509 57.6082 552.252 59.7658 547.505 64.0811C542.327 67.9648 539.737 72.9273 539.737 78.9686V529.478C539.737 535.951 542.542 541.129 548.152 545.013C553.762 548.896 559.803 550.838 566.276 550.838C572.749 550.838 578.79 548.896 584.4 545.013C590.01 541.129 592.815 535.951 592.815 529.478Z" fill="#00A8FF"/>
<path d="M308.4 335.293V599.385H228.784V7.76758H308.4V271.212H365.361V7.76758H444.977V599.385H365.361V335.293H308.4Z" fill="#00A8FF"/>
<path d="M214.898 529.478C212.309 553.643 200.011 572.63 178.003 586.439C156.427 600.679 132.909 607.799 107.449 607.799C81.5577 607.799 57.824 600.679 36.2479 586.439C14.6718 572.63 2.58913 553.643 0 529.478V379.308L80.9104 378.661V528.83C80.9104 535.303 83.4995 540.481 88.6778 544.365C94.2876 548.249 100.545 550.191 107.449 550.191C113.49 550.191 119.747 548.033 126.22 543.718C131.399 539.834 133.988 534.872 133.988 528.83V359.242C133.988 345.002 126.004 337.882 110.038 337.882H104.86C78.1055 337.882 53.9403 329.899 32.3642 313.932C10.7881 297.966 0 277.037 0 251.146V86.7359C0 60.4131 11.0038 39.4843 33.0114 23.9495C55.4506 7.98316 80.2631 0 107.449 0C134.203 0 158.8 7.98316 181.239 23.9495C203.678 39.9158 214.898 60.8446 214.898 86.7359V204.541H133.988V79.6158C133.988 73.143 131.399 67.9648 126.22 64.0811C119.747 59.7658 113.49 57.6082 107.449 57.6082C100.976 57.6082 94.9349 59.7658 89.3251 64.0811C83.7153 67.9648 80.9104 73.143 80.9104 79.6158V244.673C80.9104 250.714 83.068 255.677 87.3832 259.561C91.6985 263.876 97.524 266.033 104.86 266.033H119.747C159.879 266.033 188.144 281.568 204.542 312.638C211.877 329.036 215.33 344.57 214.898 359.242V529.478Z" fill="#00A8FF"/>
</svg>
