<svg width="21" height="27" viewBox="0 0 21 27" fill="none" xmlns="http://www.w3.org/2000/svg">
<path d="M13.0055 6.06984C12.9148 4.91986 11.4974 0.828057 10.6494 2.43296C10.7887 3.25423 11.8026 7.7026 13.0055 6.06984ZM4.75628 26.7574C2.16309 25.6015 -0.775597 23.0171 0.180254 19.8082C0.374193 16.9723 0.492485 14.1328 0.850176 11.3159C0.773127 9.07184 1.58218 6.85918 1.02397 4.62098C-0.0397536 3.01003 -0.912308 0.0417709 2.10426 0.00088501C4.73484 0.375036 5.57057 3.53368 3.87662 5.56637C3.74231 11.0501 3.87141 16.5416 3.80047 22.0287C5.04832 23.4459 7.02392 25.2023 8.87382 23.78C11.2285 22.0384 12.504 19.0608 13.4505 16.3011C13.6697 14.4751 15.0465 10.6756 12.5108 10.3151C9.7793 9.42652 8.66246 6.09049 8.44643 3.38238C7.35581 -0.193801 11.8181 -1.08561 13.1722 1.85305C15.2615 3.58479 14.0722 9.85562 18.024 7.48174C19.1969 7.13339 19.2296 3.57953 20.317 5.86463C20.1683 9.39367 15.4031 9.54222 15.3892 12.6554C15.1364 17.9342 12.3597 22.9832 8.36888 26.2385C7.31445 26.9277 5.95087 26.9594 4.75615 26.7574L4.75628 26.7574Z" fill="black"/>
</svg>
