<svg width="15" height="14" viewBox="0 0 15 14" fill="none" xmlns="http://www.w3.org/2000/svg">
<path d="M10.5692 12.9231C8.57304 11.0936 9.46023 8.03808 9.04997 5.6317C8.15203 2.05874 5.50161 5.24879 6.33093 7.52994C6.88928 10.5096 3.75782 10.0129 4.57207 7.22506C4.40771 5.99602 4.85111 4.583 4.40322 3.44819C3.78079 1.22035 1.68955 2.47642 0.469727 1.96956C0.881598 -1.09635 5.20035 -0.027606 5.9194 2.38241C6.86015 3.83811 9.524 1.75065 10.7042 3.73712C12.0501 6.0187 10.2227 9.40561 11.9577 11.3983C12.9501 11.6094 14.6793 8.60521 14.1436 11.0739C13.8305 12.7964 12.0814 13.5331 10.5693 12.9232L10.5692 12.9231Z" fill="black"/>
</svg>
