<svg width="468" height="414" viewBox="0 0 468 414" fill="none" xmlns="http://www.w3.org/2000/svg">
<path d="M321.161 59.2112C283.297 50.325 246.526 39.3986 207.482 43.5949C146.297 38.6765 98.1885 67.9453 65.3029 106.978C43.2621 133.138 33.8918 176.887 26.5817 209.4C20.4131 236.837 16.2357 272.576 32.3078 298.895C43.4041 317.066 64.6275 326.368 84.011 334.647C103.152 342.823 122.815 351.009 143.483 354.663C169.346 359.235 255.614 379.462 281.084 375.379C337.274 366.37 353.052 359.913 393.178 304.105C433.305 248.297 430.847 199.049 419.178 145.606C412.485 114.955 386.967 77.6095 353.464 66.9678C337.924 62.032 321.25 57.6517 305.342 53.9183" stroke="#00A8FF" stroke-width="3" stroke-linecap="round"/>
<path d="M330.549 61.4142C292.588 52.5054 255.723 41.5567 216.587 45.7315C155.251 40.7778 107.043 70.0232 74.1006 109.042C52.0214 135.194 42.6532 178.943 35.3439 211.457C29.176 238.893 25.0087 274.635 41.1345 300.966C52.2678 319.146 73.5476 328.461 92.9826 336.753C112.174 344.94 131.89 353.138 152.61 356.804C178.537 361.392 265.025 381.67 290.553 377.601C346.875 368.623 362.686 362.174 402.878 306.381C443.07 250.588 440.578 201.333 428.85 147.876C422.125 117.217 396.523 79.8521 362.934 69.1901C347.354 64.2449 330.637 59.8545 314.689 56.1116" stroke="#00A8FF" stroke-width="3" stroke-linecap="round"/>
</svg>
