<svg width="162" height="13" viewBox="0 0 162 13" fill="none" xmlns="http://www.w3.org/2000/svg">
<circle cx="6.39458" cy="6.39474" r="6.39474" fill="#7D8EA1" style="fill:#7D8EA1;fill:color(display-p3 0.4921 0.5588 0.6299);fill-opacity:1;"/>
<circle cx="22.5945" cy="6.39474" r="6.39474" fill="#7D8EA1" style="fill:#7D8EA1;fill:color(display-p3 0.4921 0.5588 0.6299);fill-opacity:1;"/>
<ellipse cx="39.2211" cy="6.39474" rx="6.82105" ry="6.39474" fill="#7D8EA1" style="fill:#7D8EA1;fill:color(display-p3 0.4921 0.5588 0.6299);fill-opacity:1;"/>
<ellipse cx="56.2736" cy="6.39474" rx="6.82105" ry="6.39474" fill="#7D8EA1" style="fill:#7D8EA1;fill:color(display-p3 0.4921 0.5588 0.6299);fill-opacity:1;"/>
<path d="M73.3268 0.5C76.8485 0.500119 79.648 3.16903 79.6481 6.39453C79.6481 9.62013 76.8486 12.2889 73.3268 12.2891C69.8049 12.2891 67.0055 9.6202 67.0055 6.39453C67.0056 3.16896 69.8049 0.5 73.3268 0.5Z" stroke="#7D8EA1" style="stroke:#7D8EA1;stroke:color(display-p3 0.4921 0.5588 0.6299);stroke-opacity:1;"/>
<path d="M90.3792 0.5C93.9009 0.500119 96.7004 3.16903 96.7005 6.39453C96.7005 9.62013 93.901 12.2889 90.3792 12.2891C86.8573 12.2891 84.0579 9.6202 84.0579 6.39453C84.058 3.16896 86.8574 0.5 90.3792 0.5Z" stroke="#7D8EA1" style="stroke:#7D8EA1;stroke:color(display-p3 0.4921 0.5588 0.6299);stroke-opacity:1;"/>
<circle cx="107.005" cy="6.39474" r="5.89474" stroke="#7D8EA1" style="stroke:#7D8EA1;stroke:color(display-p3 0.4921 0.5588 0.6299);stroke-opacity:1;"/>
<circle cx="123.205" cy="6.39474" r="5.89474" stroke="#7D8EA1" style="stroke:#7D8EA1;stroke:color(display-p3 0.4921 0.5588 0.6299);stroke-opacity:1;"/>
<circle cx="139.405" cy="6.39474" r="5.89474" stroke="#7D8EA1" style="stroke:#7D8EA1;stroke:color(display-p3 0.4921 0.5588 0.6299);stroke-opacity:1;"/>
<circle cx="155.605" cy="6.39474" r="5.89474" stroke="#7D8EA1" style="stroke:#7D8EA1;stroke:color(display-p3 0.4921 0.5588 0.6299);stroke-opacity:1;"/>
</svg>
