<svg width="264" height="131" viewBox="0 0 264 131" fill="none" xmlns="http://www.w3.org/2000/svg">
<path d="M105.843 116.714C101.933 116.714 98.6967 119.949 98.6967 123.857C98.6967 127.766 101.933 131.001 105.843 131.001C109.753 131.001 112.989 127.766 112.989 123.857C112.989 119.949 109.753 116.714 105.843 116.714Z" fill="white" style="fill:white;fill-opacity:1;"/>
<path d="M49.3484 100.137C48.4045 99.5982 48.2697 97.0374 48.2697 93.5333V73.991C48.2697 56.4704 44.7641 44.745 27.3708 44.745C18.7416 44.745 11.7303 47.7101 7.55057 53.101C3.91012 57.8181 2.9663 63.883 4.58427 70.0826L4.85394 70.8912L10.7865 67.9262L10.5169 67.3871C9.16855 63.6134 9.70787 59.705 12 56.4704C14.9663 52.1576 20.4944 49.5969 26.8315 49.5969C38.5618 49.5969 41.3933 55.9313 42.0675 67.1176C24.1349 70.0826 0 74.3954 0 91.5117C0 102.563 8.35956 106.472 16.1798 106.472C27.1012 106.472 36.9439 101.485 42.2023 93.2638V99.0591C42.2023 103.102 44.0899 105.393 47.5956 105.393C49.4832 105.393 52.1798 104.45 53.7978 101.62L53.9326 101.485V99.0591L52.9888 99.4634C51.1012 100.272 49.8877 100.542 49.3484 100.137ZM16.9888 101.62C9.70788 101.62 6.06742 98.1156 6.06742 91.3769C6.06742 79.382 25.618 73.991 42.2023 71.6999V78.8429C42.2023 94.342 27.1012 101.62 16.9888 101.62Z" fill="white" style="fill:white;fill-opacity:1;"/>
<path d="M145.618 94.7463V69.9478C145.618 57.5486 143.596 44.745 129.034 44.745C115.955 44.745 111.101 53.7749 108.539 62.1309C107.191 50.2708 102.068 44.745 92.3596 44.745C79.9551 44.745 74.9664 52.9663 72.2697 60.9179V51.4838C72.2697 47.7101 71.0562 45.958 68.0899 45.8232H60.4045V48.3839H61.0787C65.3933 48.3839 66.2023 49.5969 66.2023 56.4704V94.7463C66.2023 101.485 65.3933 102.833 61.0787 102.833H60.4045V105.393H78.0675V102.833H77.3933C73.0787 102.833 72.2697 101.62 72.2697 94.7463V83.6948C72.2697 53.101 83.5956 49.4621 92.09 49.4621C101.259 49.4621 103.011 56.7399 103.011 68.6001V94.6115C103.011 101.35 102.202 102.698 97.8877 102.698H97.0787V105.259H114.607V102.698H113.933C109.618 102.698 108.809 101.485 108.809 94.6115V83.56C108.809 52.9663 120.135 49.3274 128.629 49.3274C137.798 49.3274 139.551 56.6052 139.551 68.4653V94.4767C139.551 101.215 138.742 102.563 134.427 102.563H133.753V105.124H151.416V102.563H150.742C146.427 102.833 145.618 101.485 145.618 94.7463Z" fill="white" style="fill:white;fill-opacity:1;"/>
<path d="M180.539 70.8912C170.292 67.5219 164.09 64.9612 164.09 58.492C164.09 52.6967 169.214 49.4621 178.517 49.4621C185.798 49.4621 191.326 51.4837 193.348 54.7183C194.832 57.1443 194.562 60.2441 192.674 63.883L192.405 64.4221L198.337 67.3871L198.607 66.7132C200.764 60.6484 200.629 55.527 197.933 51.7533C193.483 45.4189 183.91 44.4755 178.652 44.4755C165.708 44.4755 158.157 49.7317 158.157 59.0311C158.157 68.061 165.169 71.5651 180.135 76.6865C180.944 76.9561 181.753 77.2256 182.562 77.4952C189.978 79.9211 196.989 82.347 196.989 90.703C196.989 99.5981 188.629 101.35 181.618 101.35C175.551 101.35 167.731 100.272 164.09 95.5549C161.933 92.5899 161.663 88.5467 163.146 83.2905L163.281 82.7514L157.348 79.7863L157.214 80.595C155.326 88.2771 156.135 94.3419 159.641 98.6547C163.551 103.641 170.966 106.202 181.483 106.202C195.506 106.202 202.922 100.542 202.922 89.8944C202.922 79.2472 192.809 74.9345 180.539 70.8912Z" fill="white" style="fill:white;fill-opacity:1;"/>
<path d="M263.056 99.3286C261.169 100.272 259.955 100.542 259.281 100.137C258.337 99.5981 258.203 97.0374 258.203 93.5333V73.991C258.203 56.4704 254.697 44.745 237.304 44.745C228.674 44.745 221.663 47.7101 217.483 53.101C213.843 57.8181 212.899 63.883 214.517 70.0826L214.787 70.8912L220.719 67.9262L220.45 67.3871C219.101 63.6134 219.641 59.705 221.933 56.4704C224.899 52.1576 230.427 49.5969 236.764 49.5969C248.495 49.5969 251.326 55.9313 252 67.1176C234.202 70.2174 210.068 74.5301 210.068 91.6465C210.068 102.698 218.427 106.606 226.247 106.606C237.169 106.606 247.011 101.62 252.27 93.3985V99.1938C252.27 103.237 254.158 105.528 257.663 105.528C259.551 105.528 262.247 104.585 263.865 101.755L264 101.62V99.1938L263.056 99.3286ZM226.922 101.62C219.641 101.62 216 98.1156 216 91.3769C216 79.382 235.551 73.991 252.135 71.6999V78.8429C252.135 94.3419 237.169 101.62 226.922 101.62Z" fill="white" style="fill:white;fill-opacity:1;"/>
<path d="M198.607 20.0814V27.8983H199.955V20.0814C200.764 17.1163 202.382 15.3643 205.483 14.5556H213.304V13.2079H205.483C202.517 12.3992 200.764 10.7819 199.955 7.68213V0H198.607V7.8169C197.798 10.7819 196.18 12.534 193.079 13.3426H185.259V14.6904H193.079C196.045 15.499 197.798 17.1163 198.607 20.0814Z" fill="white" style="fill:white;fill-opacity:1;"/>
<path d="M193.888 21.9682L190.113 18.3293C184.045 24.9332 175.955 30.3242 167.326 33.2892C164.36 34.3674 161.393 34.9065 158.292 35.3108L158.427 36.6586C171.506 36.5238 184.045 30.7285 193.888 21.9682Z" fill="white" style="fill:white;fill-opacity:1;"/>
</svg>
